<?xml version="1.0"?>
<svg xmlns="http://www.w3.org/2000/svg" xmlns:xlink="http://www.w3.org/1999/xlink" id="Layer_1" data-name="Layer 1" viewBox="0 0 512 512" width="512" height="512"><defs><linearGradient id="linear-gradient" x1="256.001" y1="493" x2="256.001" y2="24.385" gradientUnits="userSpaceOnUse"><stop offset="0.322" stop-color="#a163f5"/><stop offset="0.466" stop-color="#b074ee"/><stop offset="0.752" stop-color="#d8a1dd"/><stop offset="0.898" stop-color="#efbad3"/></linearGradient><linearGradient id="linear-gradient-2" x1="256" y1="493" x2="256" y2="24.385" xlink:href="#linear-gradient"/><linearGradient id="linear-gradient-3" x1="375" y1="493" x2="375" y2="24.385" xlink:href="#linear-gradient"/><linearGradient id="linear-gradient-4" x1="134" y1="493" x2="134" y2="24.385" xlink:href="#linear-gradient"/><linearGradient id="linear-gradient-5" x1="256" y1="493" x2="256" y2="24.384" xlink:href="#linear-gradient"/></defs><title>blood bank</title><path d="M261.8,162.275A7.2,7.2,0,0,0,256,159h0a7.2,7.2,0,0,0-5.794,3.273c-.815,1.2-20.032,29.684-25,40.254-2.845,6.05-5.88,13.3-5.88,22.2a36.679,36.679,0,1,0,73.357.038c0-8.99-2.785-15.708-5.889-22.259C281.755,191.872,262.608,163.475,261.8,162.275ZM256,247.452a22.7,22.7,0,0,1-22.678-22.68c0-6.008,2.248-11.293,4.549-16.188,2.762-5.87,11.549-19.593,18.127-29.57,6.563,9.964,15.336,23.669,18.14,29.588,3.077,6.494,4.541,10.57,4.541,16.17A22.705,22.705,0,0,1,256,247.452Z" style="fill:url(#linear-gradient)"/><path d="M490.028,183.275,260.421,21.685a6.994,6.994,0,0,0-8.048,0L21.981,183.27A7,7,0,0,0,26,196H76.343A7,7,0,0,0,79,195.457V484a7,7,0,0,0,7,7H424a7,7,0,0,0,7-7V194.872A6.989,6.989,0,0,0,434.789,196H486a7,7,0,0,0,4.028-12.725ZM313,477H262V337h51Zm-65,0H197V337h51Zm79,0V330a7,7,0,0,0-7-7H190a7,7,0,0,0-7,7V477H93V186.135L256.079,75.208,417,185.311V477ZM436.954,182,260.044,60.957a7,7,0,0,0-7.89-.011L74.188,182H48.171L256.386,35.965,463.891,182Z" style="fill:url(#linear-gradient-2)"/><path d="M392,334H358a11.013,11.013,0,0,0-11,11v62a11.013,11.013,0,0,0,11,11h34a11.013,11.013,0,0,0,11-11V345A11.013,11.013,0,0,0,392,334Zm-3,70H361V348h28Z" style="fill:url(#linear-gradient-3)"/><path d="M151,334H117a11.013,11.013,0,0,0-11,11v62a11.013,11.013,0,0,0,11,11h34a11.013,11.013,0,0,0,11-11V345A11.013,11.013,0,0,0,151,334Zm-3,70H120V348h28Z" style="fill:url(#linear-gradient-4)"/><path d="M256,116.9a93.527,93.527,0,1,0,93.526,93.527A93.633,93.633,0,0,0,256,116.9Zm0,173.053a79.527,79.527,0,1,1,79.526-79.526A79.616,79.616,0,0,1,256,289.953Z" style="fill:url(#linear-gradient-5)"/></svg>
