<?xml version="1.0" encoding="iso-8859-1"?>
<!-- Generator: Adobe Illustrator 19.0.0, SVG Export Plug-In . SVG Version: 6.00 Build 0)  -->
<svg version="1.1" id="Capa_1" xmlns="http://www.w3.org/2000/svg" xmlns:xlink="http://www.w3.org/1999/xlink" x="0px" y="0px"
	 viewBox="0 0 480.048 480.048" style="enable-background:new 0 0 480.048 480.048;" xml:space="preserve">
<g>
	<g>
		<path d="M376.024,32.048h-96.8c-4.396-21.65-25.51-35.636-47.16-31.24c-15.741,3.196-28.044,15.499-31.24,31.24h-80.8
			c-30.913,0.035-55.965,25.087-56,56v272c0,2.674,1.335,5.172,3.56,6.656l72,48c1.316,0.874,2.86,1.341,4.44,1.344h32v32
			c0,4.418,3.582,8,8,8h16v24h16v-24h16c4.418,0,8-3.582,8-8v-32h16v56c0,4.418,3.582,8,8,8h32c4.418,0,8-3.582,8-8v-56h32
			c1.58-0.003,3.124-0.47,4.44-1.344l72-48c2.225-1.484,3.56-3.982,3.56-6.656v-288C415.998,49.967,398.104,32.074,376.024,32.048z
			 M240.024,16.048c10.168,0.012,19.229,6.418,22.632,16h-45.264C220.795,22.466,229.856,16.06,240.024,16.048z M224.024,440.048
			h-32v-16h32V440.048z M256.024,400.048h-16v-24h16V400.048z M288.024,464.048h-16v-16h16V464.048z M288.024,352.048v80h-16v-80
			h-16v8h-16v-8h-16v56h-32v-56h-16v8h-13.6l-42.4-28.28v-11.72h32v-16h-32v-16h16v-16h-16v-16h32v-16h-32v-16h16v-16h-16v-16h32
			v-16h-32v-16h16v-16h-16v-16h32v-16h-32v-8c0-8.837,7.163-16,16-16h208c8.837,0,16,7.163,16,16v227.72l-42.4,28.28h-13.6v-8
			H288.024z M400.024,355.768l-66.4,44.28h-29.6v-24h16c1.58-0.003,3.124-0.47,4.44-1.344l48-32c2.225-1.484,3.56-3.982,3.56-6.656
			v-232c0-17.673-14.327-32-32-32h-208c-17.673,0-32,14.327-32,32v232c0,2.674,1.335,5.172,3.56,6.656l48,32
			c1.316,0.874,2.86,1.341,4.44,1.344h16v24h-29.6l-66.4-44.28V88.048c0.026-22.08,17.92-39.974,40-40h256c13.255,0,24,10.745,24,24
			V355.768z"/>
	</g>
</g>
<g>
	<g>
		<rect x="256.024" y="192.048" width="16" height="16"/>
	</g>
</g>
<g>
	<g>
		<rect x="288.024" y="192.048" width="48" height="16"/>
	</g>
</g>
<g>
	<g>
		<rect x="240.024" y="224.048" width="96" height="16"/>
	</g>
</g>
<g>
	<g>
		<rect x="240.024" y="256.048" width="96" height="16"/>
	</g>
</g>
<g>
	<g>
		<rect x="240.024" y="288.048" width="80" height="16"/>
	</g>
</g>
<g>
	<g>
		<path d="M304.024,112.048c-17.673,0-32,14.327-32,32s14.327,32,32,32c17.673,0,32-14.327,32-32S321.697,112.048,304.024,112.048z
			 M304.024,160.048c-8.837,0-16-7.163-16-16s7.163-16,16-16s16,7.163,16,16S312.861,160.048,304.024,160.048z"/>
	</g>
</g>
<g>
	<g>
		<path d="M112.024,0.048c-44.163,0.049-79.951,35.837-80,80v96h16v-96c0.04-35.33,28.67-63.96,64-64h24v-16H112.024z"/>
	</g>
</g>
<g>
	<g>
		<rect x="32.024" y="192.048" width="16" height="16"/>
	</g>
</g>
<g>
	<g>
		<rect x="432.024" y="184.048" width="16" height="144"/>
	</g>
</g>
<g>
	<g>
		<rect x="432.024" y="152.048" width="16" height="16"/>
	</g>
</g>
<g>
</g>
<g>
</g>
<g>
</g>
<g>
</g>
<g>
</g>
<g>
</g>
<g>
</g>
<g>
</g>
<g>
</g>
<g>
</g>
<g>
</g>
<g>
</g>
<g>
</g>
<g>
</g>
<g>
</g>
</svg>
